<?xml version="1.0" encoding="UTF-8" standalone="no"?>
<!-- Created with Inkscape (http://www.inkscape.org/) -->

<svg
   xmlns:dc="http://purl.org/dc/elements/1.1/"
   xmlns:cc="http://creativecommons.org/ns#"
   xmlns:rdf="http://www.w3.org/1999/02/22-rdf-syntax-ns#"
   xmlns:svg="http://www.w3.org/2000/svg"
   xmlns="http://www.w3.org/2000/svg"
   xmlns:xlink="http://www.w3.org/1999/xlink"
   xmlns:sodipodi="http://sodipodi.sourceforge.net/DTD/sodipodi-0.dtd"
   xmlns:inkscape="http://www.inkscape.org/namespaces/inkscape"
   width="500"
   height="500"
   id="svg2"
   version="1.1"
   inkscape:version="0.48.4 r9939"
   sodipodi:docname="applegoogle.svg">
  <defs
     id="defs4">
    <linearGradient
       inkscape:collect="always"
       id="linearGradient3010">
      <stop
         style="stop-color:#ff0000;stop-opacity:1;"
         offset="0"
         id="stop3012" />
      <stop
         style="stop-color:#ff0000;stop-opacity:0;"
         offset="1"
         id="stop3014" />
    </linearGradient>
    <linearGradient
       inkscape:collect="always"
       id="linearGradient3802">
      <stop
         style="stop-color:#ff2a2a;stop-opacity:1;"
         offset="0"
         id="stop3804" />
      <stop
         style="stop-color:#ffaaaa;stop-opacity:1"
         offset="1"
         id="stop3806" />
    </linearGradient>
    <linearGradient
       inkscape:collect="always"
       xlink:href="#linearGradient3802"
       id="linearGradient3808"
       x1="-727.34674"
       y1="-693.32892"
       x2="-761.27533"
       y2="-727.16821"
       gradientUnits="userSpaceOnUse"
       gradientTransform="matrix(0,-14.564994,14.565005,0,10593.941,-10035.923)" />
    <linearGradient
       inkscape:collect="always"
       xlink:href="#linearGradient3802-2"
       id="linearGradient3808-8"
       x1="-727.34674"
       y1="-693.32892"
       x2="-761.27533"
       y2="-727.16821"
       gradientUnits="userSpaceOnUse"
       gradientTransform="matrix(1.3982406,0,0,1.3982406,12.114126,1017.0184)" />
    <linearGradient
       inkscape:collect="always"
       id="linearGradient3802-2">
      <stop
         style="stop-color:#ff2a2a;stop-opacity:1;"
         offset="0"
         id="stop3804-0" />
      <stop
         style="stop-color:#ffaaaa;stop-opacity:1"
         offset="1"
         id="stop3806-9" />
    </linearGradient>
    <linearGradient
       y2="-727.16821"
       x2="-761.27533"
       y1="-693.32892"
       x1="-727.34674"
       gradientTransform="matrix(0,-1.3982406,1.3982406,0,1017.0184,-1016.4764)"
       gradientUnits="userSpaceOnUse"
       id="linearGradient5029"
       xlink:href="#linearGradient3802-2"
       inkscape:collect="always" />
    <linearGradient
       inkscape:collect="always"
       xlink:href="#linearGradient3010"
       id="linearGradient3016"
       x1="47.810944"
       y1="1004.4277"
       x2="-0.3706288"
       y2="1052.6094"
       gradientUnits="userSpaceOnUse" />
    <linearGradient
       inkscape:collect="always"
       xlink:href="#linearGradient3010"
       id="linearGradient3037"
       gradientUnits="userSpaceOnUse"
       x1="47.810944"
       y1="1004.4277"
       x2="-0.3706288"
       y2="1052.6094" />
    <linearGradient
       inkscape:collect="always"
       xlink:href="#linearGradient3010"
       id="linearGradient3039"
       gradientUnits="userSpaceOnUse"
       x1="47.810944"
       y1="1004.4277"
       x2="-0.3706288"
       y2="1052.6094" />
    <linearGradient
       inkscape:collect="always"
       xlink:href="#linearGradient3010"
       id="linearGradient3041"
       gradientUnits="userSpaceOnUse"
       x1="47.810944"
       y1="1004.4277"
       x2="-0.3706288"
       y2="1052.6094" />
    <linearGradient
       inkscape:collect="always"
       xlink:href="#linearGradient3010"
       id="linearGradient3043"
       gradientUnits="userSpaceOnUse"
       x1="47.810944"
       y1="1004.4277"
       x2="-0.3706288"
       y2="1052.6094" />
    <linearGradient
       inkscape:collect="always"
       xlink:href="#linearGradient3010"
       id="linearGradient3045"
       gradientUnits="userSpaceOnUse"
       x1="47.810944"
       y1="1004.4277"
       x2="-0.3706288"
       y2="1052.6094" />
    <linearGradient
       inkscape:collect="always"
       xlink:href="#linearGradient3010"
       id="linearGradient3047"
       gradientUnits="userSpaceOnUse"
       x1="47.810944"
       y1="1004.4277"
       x2="-0.3706288"
       y2="1052.6094" />
    <linearGradient
       inkscape:collect="always"
       xlink:href="#linearGradient3010"
       id="linearGradient3049"
       gradientUnits="userSpaceOnUse"
       x1="47.810944"
       y1="1004.4277"
       x2="-0.3706288"
       y2="1052.6094" />
    <linearGradient
       inkscape:collect="always"
       xlink:href="#linearGradient3010"
       id="linearGradient3051"
       gradientUnits="userSpaceOnUse"
       x1="47.810944"
       y1="1004.4277"
       x2="-0.3706288"
       y2="1052.6094" />
  </defs>
  <sodipodi:namedview
     id="base"
     pagecolor="#ffffff"
     bordercolor="#666666"
     borderopacity="1.0"
     inkscape:pageopacity="0.0"
     inkscape:pageshadow="2"
     inkscape:zoom="1.0117977"
     inkscape:cx="187.77591"
     inkscape:cy="222.84649"
     inkscape:document-units="px"
     inkscape:current-layer="layer1"
     showgrid="false"
     inkscape:window-width="1625"
     inkscape:window-height="1026"
     inkscape:window-x="55"
     inkscape:window-y="24"
     inkscape:window-maximized="1" />
  <metadata
     id="metadata7">
    <rdf:RDF>
      <cc:Work
         rdf:about="">
        <dc:format>image/svg+xml</dc:format>
        <dc:type
           rdf:resource="http://purl.org/dc/dcmitype/StillImage" />
        <dc:title />
      </cc:Work>
    </rdf:RDF>
  </metadata>
  <g
     inkscape:label="レイヤー 1"
     inkscape:groupmode="layer"
     id="layer1"
     transform="translate(0,-552.3622)">
    <path
       style="fill:url(#linearGradient3808);fill-opacity:1;stroke:#f5f5f5;stroke-width:5.64728165;stroke-miterlimit:4;stroke-opacity:1"
       mask="none"
       d="m 2.823643,847.98974 0,-91.25514 c 0,-111.65822 89.890821,-201.54878 201.548917,-201.54878 l 91.25488,0 c 111.65811,0 201.54892,89.89056 201.54892,201.54878 l 0,91.25514 c 0,111.65822 -89.89081,201.54886 -201.54892,201.54886 l -91.25488,0 C 92.714464,1049.5386 2.823643,959.64796 2.823643,847.98974 z"
       id="rect2993"
       inkscape:connector-curvature="0" />
    <path
       style="fill:#f5f5f5;fill-opacity:1;stroke:none"
       d="M 8.5639073,698.19563 C 2.9327927,716.69561 7.5844133e-6,736.42788 7.5844133e-6,756.78931 l 0,91.14577 c 0,20.36144 2.9327851155867,40.0937 8.5638997155867,58.59369 l 482.8721827,0 c 5.63111,-18.49999 8.5639,-38.23225 8.5639,-58.59369 l 0,-91.14577 c 0,-20.36143 -2.93279,-40.0937 -8.5639,-58.59368 l -482.8721827,0 z"
       id="rect2993-1"
       inkscape:connector-curvature="0" />
    <g
       mask="none"
       style="font-size:8px;font-style:normal;font-variant:normal;font-weight:300;font-stretch:normal;text-align:start;line-height:125%;letter-spacing:0px;word-spacing:0px;writing-mode:lr-tb;text-anchor:start;fill:url(#linearGradient3016);fill-opacity:1;stroke:none;font-family:Noto Sans CJK JP;-inkscape-font-specification:Noto Sans CJK JP Light"
       id="text2987"
       transform="matrix(10.416667,0,0,10.416657,-9.0416668e-6,-9909.7341)">
      <path
         d="m 9.7800002,1020.2422 c -0.008,0.184 -0.032,0.376 -0.064,0.6 -0.08,0.536 -0.256,1.816 -0.256,2.576 0,0.496 0.048,0.928 0.08,1.216 l 0.408,-0.032 c -0.056,-0.416 -0.056,-0.704 -0.008,-1.048 0.1359998,-1.04 1.1040008,-2.496 2.1279998,-2.496 0.935999,0 1.36,1.024 1.36,2.296 0,2.032 -1.408002,2.792 -3.104,3.04 l 0.248,0.376 c 1.879998,-0.336 3.272,-1.256 3.272,-3.424 0,-1.624 -0.704001,-2.664 -1.72,-2.664 -1.071999,0 -1.984,1.168 -2.2639998,2.112 0.048,-0.624 0.1999998,-1.84 0.3999998,-2.536 l -0.4799998,-0.016"
         style="line-height:125%;fill:url(#linearGradient3037);fill-opacity:1;font-family:Noto Sans CJK JP;-inkscape-font-specification:Noto Sans CJK JP Light"
         id="path4079"
         inkscape:connector-curvature="0" />
      <path
         d="m 19.932,1020.4662 -0.464,-0.192 c -0.072,0.184 -0.144,0.328 -0.24,0.504 -0.423999,0.768 -2.28,4.128 -2.856,5.736 l 0.44,0.152 c 0.096,-0.376 0.472,-1.344 0.728,-1.816 0.32,-0.616 1.000001,-1.312 1.696,-1.312 0.4,0 0.624,0.224 0.648,0.608 0.024,0.504 0,1.096 0.024,1.576 0.024,0.408 0.216001,0.952 1.048,0.952 1.103999,0 1.744001,-0.872 2.16,-2.104 l -0.336,-0.272 c -0.192,0.768 -0.768001,1.96 -1.768,1.96 -0.391999,0 -0.688,-0.184 -0.704,-0.632 -0.024,-0.416 -0.008,-1.008 -0.024,-1.544 -0.024,-0.6 -0.416,-0.928 -0.912,-0.928 -0.423999,0 -0.88,0.176 -1.312,0.616 0.416,-0.808 1.288,-2.376 1.616,-2.912 0.096,-0.16 0.192,-0.304 0.256,-0.392"
         style="line-height:125%;fill:url(#linearGradient3039);fill-opacity:1;font-family:Noto Sans CJK JP;-inkscape-font-specification:Noto Sans CJK JP Light"
         id="path4081"
         inkscape:connector-curvature="0" />
      <path
         d="m 29.844,1020.1462 -0.312,0.136 c 0.224,0.296 0.512,0.792 0.664,1.12 l 0.32,-0.152 c -0.176,-0.344 -0.472,-0.824 -0.672,-1.104 m 0.84,-0.296 -0.296,0.136 c 0.232,0.296 0.496,0.744 0.68,1.104 l 0.312,-0.144 c -0.16,-0.312 -0.48,-0.808 -0.696,-1.096 m -5.2,1.648 c 0.616,0.056 1.288001,0.088 2.064,0.088 0.711999,0 1.512001,-0.056 2.04,-0.096 l 0,-0.416 c -0.551999,0.056 -1.288001,0.112 -2.04,0.112 -0.767999,0 -1.496,-0.032 -2.064,-0.104 l 0,0.416 m -0.296,2.64 c -0.08,0.336 -0.168,0.696 -0.168,1.08 0,0.944 0.952002,1.432 2.44,1.432 1.143999,0 2.176001,-0.128 2.672,-0.28 l -0.008,-0.44 c -0.535999,0.192 -1.560001,0.312 -2.664,0.312 -1.343998,0 -2.024,-0.456 -2.024,-1.104 0,-0.312 0.064,-0.624 0.176,-0.952 l -0.424,-0.048"
         style="line-height:125%;fill:url(#linearGradient3041);fill-opacity:1;font-family:Noto Sans CJK JP;-inkscape-font-specification:Noto Sans CJK JP Light"
         id="path4083"
         inkscape:connector-curvature="0" />
      <path
         d="m 36.164,1021.2022 c -0.455999,0.152 -0.904,0.248 -1.328,0.304 0.136,-0.456 0.248,-1 0.328,-1.296 l -0.48,-0.048 c -0.016,0.432 -0.144,0.96 -0.272,1.4 -0.343999,0.032 -0.672,0.04 -0.976,0.04 -0.375999,0 -0.656,-0.016 -0.928,-0.048 l 0.032,0.416 c 0.272,0.01 0.608,0.016 0.888,0.016 0.28,0 0.568,-0.01 0.856,-0.032 -0.359999,0.968 -1.072001,2.296 -1.736,3.056 l 0.416,0.224 c 0.64,-0.84 1.352001,-2.208 1.744,-3.328 0.512,-0.072 1.016001,-0.176 1.472,-0.296 l -0.016,-0.408 m 0.552,4.432 c 0,0.376 -0.248001,0.768 -0.952,0.768 -0.727999,0 -1.048,-0.272 -1.048,-0.688 0,-0.416 0.440001,-0.712 1.088,-0.712 0.32,0 0.624,0.048 0.904,0.136 0.008,0.184 0.008,0.36 0.008,0.496 m -0.104,-2.992 c 0.016,0.6 0.056,1.432 0.08,2.112 -0.272,-0.064 -0.576,-0.104 -0.888,-0.104 -0.759999,0 -1.48,0.384 -1.48,1.096 0,0.736 0.672001,1.04 1.48,1.04 0.887999,0 1.312,-0.488 1.312,-1.056 0,-0.128 0,-0.28 -0.008,-0.448 0.552,0.232 1.024001,0.592 1.392,0.92 l 0.224,-0.352 c -0.415999,-0.344 -0.960001,-0.736 -1.632,-0.976 -0.024,-0.544 -0.056,-1.136 -0.064,-1.472 -0.008,-0.256 -0.016,-0.432 0.008,-0.76 l -0.424,0 m 0.376,-0.968 c 0.512,0.24 1.352001,0.704 1.752,1.072 l 0.24,-0.352 c -0.359999,-0.28 -1.216,-0.784 -1.792,-1.04 l -0.2,0.32"
         style="line-height:125%;fill:url(#linearGradient3043);fill-opacity:1;font-family:Noto Sans CJK JP;-inkscape-font-specification:Noto Sans CJK JP Light"
         id="path4085"
         inkscape:connector-curvature="0" />
      <path
         d="m 13.844,1030.1462 -0.312,0.136 c 0.224,0.296 0.512,0.792 0.664,1.12 l 0.32,-0.152 c -0.176,-0.344 -0.472,-0.824 -0.672,-1.104 m 0.84,-0.296 -0.296,0.136 c 0.232,0.296 0.496,0.744 0.68,1.104 l 0.312,-0.144 c -0.16,-0.312 -0.48,-0.808 -0.696,-1.096 m -5.1999998,1.648 c 0.6159998,0.056 1.2880008,0.088 2.0639998,0.088 0.711999,0 1.512001,-0.056 2.04,-0.096 l 0,-0.416 c -0.551999,0.056 -1.288001,0.112 -2.04,0.112 -0.767999,0 -1.496,-0.032 -2.0639998,-0.104 l 0,0.416 m -0.296,2.64 c -0.08,0.336 -0.168,0.696 -0.168,1.08 0,0.944 0.9520014,1.432 2.4399998,1.432 1.143999,0 2.176001,-0.128 2.672,-0.28 l -0.008,-0.44 c -0.535999,0.192 -1.560001,0.312 -2.664,0.312 -1.343998,0 -2.0239998,-0.456 -2.0239998,-1.104 0,-0.312 0.064,-0.624 0.176,-0.952 l -0.424,-0.048"
         style="line-height:125%;fill:url(#linearGradient3045);fill-opacity:1;font-family:Noto Sans CJK JP;-inkscape-font-specification:Noto Sans CJK JP Light"
         id="path4087"
         inkscape:connector-curvature="0" />
      <path
         d="m 16.5,1033.6582 c 0.216,-0.016 0.576001,-0.024 1.016,-0.024 l 4.44,0 c 0.368,0 0.664,0.016 0.808,0.024 l 0,-0.496 c -0.16,0.016 -0.4,0.032 -0.816,0.032 l -4.432,0 c -0.471999,0 -0.808,-0.016 -1.016,-0.032 l 0,0.496"
         style="line-height:125%;fill:url(#linearGradient3047);fill-opacity:1;font-family:Noto Sans CJK JP;-inkscape-font-specification:Noto Sans CJK JP Light"
         id="path4089"
         inkscape:connector-curvature="0" />
      <path
         d="m 28.676,1031.9782 -0.296,0.136 c 0.2,0.304 0.512,0.848 0.68,1.16 l 0.32,-0.136 c -0.176,-0.304 -0.512,-0.872 -0.704,-1.16 m 0.912,-0.352 -0.296,0.144 c 0.216,0.304 0.52,0.792 0.712,1.128 l 0.312,-0.136 c -0.184,-0.336 -0.52,-0.872 -0.728,-1.136 m -0.968,-1.456 c -0.072,0.12 -0.24,0.32 -0.36,0.44 -0.535999,0.56 -1.808,1.544 -2.392,2.048 -0.663999,0.568 -0.767999,0.88 -0.04,1.472 0.743999,0.608 2.144001,1.792 2.576,2.264 0.128,0.152 0.328,0.328 0.456,0.48 l 0.36,-0.32 c -0.767999,-0.776 -2.200001,-1.992 -2.992,-2.624 -0.559999,-0.456 -0.543999,-0.592 -0.032,-1.032 0.616,-0.504 1.808001,-1.472 2.368,-1.976 0.104,-0.088 0.336,-0.304 0.456,-0.4 l -0.4,-0.352"
         style="line-height:125%;fill:url(#linearGradient3049);fill-opacity:1;font-family:Noto Sans CJK JP;-inkscape-font-specification:Noto Sans CJK JP Light"
         id="path4091"
         inkscape:connector-curvature="0" />
      <path
         d="m 35.51175,1036.3542 c -0.663999,0 -1.192,-0.256 -1.192,-0.688 0,-0.32 0.312001,-0.552 0.712,-0.552 0.711999,0 1.128,0.48 1.216,1.176 -0.224,0.04 -0.472,0.064 -0.736,0.064 m 1.56,-5.784 c -0.072,0.024 -0.144,0.04 -0.32,0.056 -0.399999,0.04 -2.392,0.112 -2.792,0.112 -0.12,0 -0.32,-0.01 -0.472,-0.024 l 0.016,0.448 c 0.152,-0.024 0.304,-0.032 0.456,-0.04 0.408,-0.016 2.248001,-0.104 2.68,-0.128 -0.407999,0.352 -1.488,1.288 -1.928,1.656 -0.455999,0.384 -1.504001,1.256 -2.216,1.856 l 0.312,0.312 c 1.095999,-1.056 1.776002,-1.56 3.136,-1.56 1.055999,0 1.864,0.624 1.864,1.432 0,0.744 -0.456001,1.256 -1.176,1.504 -0.104,-0.736 -0.608001,-1.432 -1.592,-1.432 -0.671999,0 -1.104,0.448 -1.104,0.928 0,0.576 0.552001,1.04 1.624,1.04 1.535999,0 2.648,-0.744 2.648,-2.032 0,-1.024 -0.904001,-1.8 -2.2,-1.8 -0.415999,0 -0.856,0.056 -1.28,0.208 0.679999,-0.576 1.880001,-1.656 2.248,-1.936 0.104,-0.08 0.264,-0.192 0.384,-0.28 l -0.288,-0.32"
         style="line-height:125%;fill:url(#linearGradient3051);fill-opacity:1;font-family:Noto Sans CJK JP;-inkscape-font-specification:Noto Sans CJK JP Light"
         id="path4093"
         inkscape:connector-curvature="0" />
    </g>
  </g>
</svg>
