<?xml version="1.0"?>
<svg version="1.1" xmlns="http://www.w3.org/2000/svg" xmlns:xlink="http://www.w3.org/1999/xlink" width="727" height="202">
    <desc iVinci="yes" version="4.6" gridStep="20" showGrid="no" snapToGrid="no" codePlatform="0"/>
    <g id="Layer1" name="Layer 1" opacity="1">
        <g id="Shape1">
            <desc shapeID="1" type="0" basicInfo-basicType="0" basicInfo-roundedRectRadius="12" basicInfo-polygonSides="6" basicInfo-starPoints="5" bounding="rect(-135,-80,270,160)" text="" font-familyName="Helvetica" font-pixelSize="20" font-bold="0" font-underline="0" font-alignment="1" strokeStyle="0" markerStart="0" markerEnd="0" shadowEnabled="0" shadowOffsetX="0" shadowOffsetY="2" shadowBlur="4" shadowOpacity="160" blurEnabled="0" blurRadius="4" transform="matrix(1,0,0,1,135.01,84.1393)" pers-center="0,0" pers-size="0,0" pers-start="0,0" pers-end="0,0" locked="0" mesh="" flag=""/>
            <path id="shapePath1" d="M20.0101,4.13927 C20.0101,4.13927 116.51,4.13927 116.01,4.13927 L106.01,87.1393 C101.01,81.1393 95.5101,76.6393 90.5101,74.1393 C86.0101,72.1393 80.0101,70.6393 73.0101,70.6393 C59.5101,70.6393 48.5101,75.6393 39.5101,85.1393 C30.5101,94.6393 26.0101,106.639 26.0101,121.139 C26.0101,134.639 30.0101,145.639 38.5101,154.639 C42.5101,158.639 47.0101,162.139 52.5101,164.139 L0.0101166,164.139 L20.0101,4.13927 M137.51,4.13927 C180.01,4.13927 270.01,4.13927 270.01,4.13927 L249.51,164.139 C249.51,164.139 231.51,164.139 206.01,164.139 C206.51,164.139 207.01,163.639 207.51,163.639 C213.51,160.639 219.51,155.139 225.01,147.639 L209.01,138.639 C203.51,146.139 196.01,150.139 186.01,150.139 C178.51,150.139 172.51,147.639 167.51,143.639 C163.01,139.139 160.51,133.639 160.51,126.639 L231.51,126.639 C231.51,123.139 231.51,120.639 231.51,119.139 C231.51,104.139 227.51,92.1393 219.51,83.1393 C212.01,74.6393 201.01,70.1393 187.51,70.1393 C173.51,70.1393 162.01,75.1393 153.01,84.6393 C143.51,94.6393 139.01,107.139 139.01,121.639 C139.01,135.639 143.01,147.139 151.51,155.639 C155.51,159.139 159.51,162.139 164.51,164.139 C149.01,164.139 133.01,164.139 118.01,164.139 L137.51,4.13927 M97.0101,164.139 C93.0101,164.139 89.0101,164.139 85.5101,164.139 C89.0101,162.139 93.0101,159.139 98.0101,155.139 L97.0101,164.139 M103.01,115.139 C103.01,107.139 100.51,101.139 95.5101,96.1393 C91.0101,91.1393 84.5101,88.6393 77.0101,88.6393 C68.5101,88.6393 61.5101,92.1393 56.0101,98.1393 C50.5101,104.639 47.5101,112.639 47.5101,122.139 C47.5101,130.639 50.0101,137.139 55.0101,142.139 C59.5101,146.639 66.0101,149.139 73.5101,149.139 C82.0101,149.139 88.5101,146.139 94.5101,139.139 C100.01,132.639 103.01,124.639 103.01,115.139 M210.01,109.139 C207.51,95.1393 200.01,88.1393 186.51,88.1393 C174.01,88.1393 165.51,95.1393 162.01,109.139 L210.01,109.139 Z" style="stroke:none;fill-rule:evenodd;fill:#000000;fill-opacity:1;"/>
        </g>
        <g id="Shape2">
            <desc shapeID="2" type="0" basicInfo-basicType="0" basicInfo-roundedRectRadius="12" basicInfo-polygonSides="6" basicInfo-starPoints="5" bounding="rect(-21.9875,-8.55148,43.9749,17.103)" text="" font-familyName="" font-pixelSize="20" font-bold="0" font-underline="0" font-alignment="1" strokeStyle="0" markerStart="0" markerEnd="0" shadowEnabled="0" shadowOffsetX="0" shadowOffsetY="2" shadowBlur="4" shadowOpacity="160" blurEnabled="0" blurRadius="4" transform="matrix(1,0,0,1,294.834,117.522)" pers-center="0,0" pers-size="0,0" pers-start="0,0" pers-end="0,0" locked="0" mesh="" flag=""/>
            <path id="shapePath2" d="M316.821,108.97 L314.686,126.073 L272.846,126.073 L274.788,108.97 L316.821,108.97 Z" style="stroke:none;fill-rule:nonzero;fill:#000000;fill-opacity:1;"/>
        </g>
        <g id="Shape3">
            <desc shapeID="3" type="0" basicInfo-basicType="0" basicInfo-roundedRectRadius="12" basicInfo-polygonSides="6" basicInfo-starPoints="5" bounding="rect(-20.774,-82.534,41.548,165.068)" text="" font-familyName="" font-pixelSize="20" font-bold="0" font-underline="0" font-alignment="1" strokeStyle="0" markerStart="0" markerEnd="0" shadowEnabled="0" shadowOffsetX="0" shadowOffsetY="2" shadowBlur="4" shadowOpacity="160" blurEnabled="0" blurRadius="4" transform="matrix(1,0,0,1,342.909,82.534)" pers-center="0,0" pers-size="0,0" pers-start="0,0" pers-end="0,0" locked="0" mesh="" flag=""/>
            <path id="shapePath3" d="M363.683,7.62939e-06 L343.589,165.068 L322.135,165.068 L342.327,7.62939e-06 L363.683,7.62939e-06 Z" style="stroke:none;fill-rule:nonzero;fill:#000000;fill-opacity:1;"/>
        </g>
        <g id="Shape4">
            <desc shapeID="4" type="0" basicInfo-basicType="0" basicInfo-roundedRectRadius="12" basicInfo-polygonSides="6" basicInfo-starPoints="5" bounding="rect(-19.7062,-73.9337,39.4124,147.867)" text="" font-familyName="" font-pixelSize="20" font-bold="0" font-underline="0" font-alignment="1" strokeStyle="0" markerStart="0" markerEnd="0" shadowEnabled="0" shadowOffsetX="0" shadowOffsetY="2" shadowBlur="4" shadowOpacity="160" blurEnabled="0" blurRadius="4" transform="matrix(1,0,0,1,384.868,91.1344)" pers-center="0,0" pers-size="0,0" pers-start="0,0" pers-end="0,0" locked="0" mesh="" flag=""/>
            <path id="shapePath4" d="M404.574,29.2216 C404.574,32.3491 403.442,35.0529 401.177,37.3333 C398.911,39.6137 396.193,40.7539 393.022,40.7539 C389.851,40.7539 387.101,39.5812 384.771,37.2356 C382.506,34.7598 381.373,31.9255 381.373,28.733 C381.373,25.5404 382.473,22.8365 384.674,20.6213 C386.939,18.3409 389.625,17.2007 392.731,17.2007 C395.902,17.2007 398.653,18.4061 400.982,20.8168 C403.377,23.1623 404.574,25.9639 404.574,29.2216 M397.876,73.0052 L386.615,165.068 L365.162,165.068 L370.643,120.255 L376.422,73.0052 L397.876,73.0052 Z" style="stroke:none;fill-rule:nonzero;fill:#000000;fill-opacity:1;"/>
        </g>
        <g id="Shape5">
            <desc shapeID="5" type="0" basicInfo-basicType="0" basicInfo-roundedRectRadius="12" basicInfo-polygonSides="6" basicInfo-starPoints="5" bounding="rect(-60.7203,-75.4485,121.441,150.897)" text="" font-familyName="" font-pixelSize="20" font-bold="0" font-underline="0" font-alignment="1" strokeStyle="0" markerStart="0" markerEnd="0" shadowEnabled="0" shadowOffsetX="0" shadowOffsetY="2" shadowBlur="4" shadowOpacity="160" blurEnabled="0" blurRadius="4" transform="matrix(1,0,0,1,470.206,89.6196)" pers-center="0,0" pers-size="0,0" pers-start="0,0" pers-end="0,0" locked="0" mesh="" flag=""/>
            <path id="shapePath5" d="M450.063,14.171 L442.297,78.2827 L502.872,14.171 L530.927,14.171 L461.033,84.3421 L523.937,165.068 L497.145,165.068 L440.647,91.4764 L431.716,165.068 L409.486,165.068 L427.93,14.171 L450.063,14.171 Z" style="stroke:none;fill-rule:nonzero;fill:#000000;fill-opacity:1;"/>
        </g>
        <g id="Shape6">
            <desc shapeID="6" type="0" basicInfo-basicType="0" basicInfo-roundedRectRadius="12" basicInfo-polygonSides="6" basicInfo-starPoints="5" bounding="rect(-46.4018,-49.0122,92.8036,98.0244)" text="" font-familyName="" font-pixelSize="20" font-bold="0" font-underline="0" font-alignment="1" strokeStyle="0" markerStart="0" markerEnd="0" shadowEnabled="0" shadowOffsetX="0" shadowOffsetY="2" shadowBlur="4" shadowOpacity="160" blurEnabled="0" blurRadius="4" transform="matrix(1,0,0,1,572.257,119.829)" pers-center="0,0" pers-size="0,0" pers-start="0,0" pers-end="0,0" locked="0" mesh="" flag=""/>
            <path id="shapePath6" d="M547.697,127.599 C547.697,134.375 550.027,139.946 554.686,144.311 C559.41,148.676 565.429,150.859 572.742,150.859 C582.773,150.859 590.474,147.08 595.846,139.522 L611.863,148.416 C606.298,155.974 600.57,161.251 594.681,164.248 C588.727,167.31 581.285,168.841 572.354,168.841 C558.181,168.841 546.888,164.639 538.475,156.234 C530.062,147.829 525.855,136.59 525.855,122.517 C525.855,107.792 530.482,95.4779 539.737,85.5744 C548.926,75.7362 560.543,70.817 574.586,70.817 C588.177,70.817 598.888,75.2475 606.718,84.1085 C614.678,93.0346 618.659,104.99 618.659,119.976 C618.659,121.54 618.561,124.081 618.367,127.599 L547.697,127.599 M596.914,110.203 C594.649,95.9991 586.85,88.8973 573.519,88.8973 C560.899,88.8973 552.68,95.9991 548.862,110.203 L596.914,110.203 Z" style="stroke:none;fill-rule:nonzero;fill:#000000;fill-opacity:1;"/>
        </g>
        <g id="Shape7">
            <desc shapeID="7" type="0" basicInfo-basicType="0" basicInfo-roundedRectRadius="12" basicInfo-polygonSides="6" basicInfo-starPoints="5" bounding="rect(-48.4889,-75.4485,96.9778,150.897)" text="" font-familyName="" font-pixelSize="20" font-bold="0" font-underline="0" font-alignment="1" strokeStyle="0" markerStart="0" markerEnd="0" shadowEnabled="0" shadowOffsetX="0" shadowOffsetY="2" shadowBlur="4" shadowOpacity="160" blurEnabled="0" blurRadius="4" transform="matrix(1,0,0,1,678.66,90.461)" pers-center="0,0" pers-size="0,0" pers-start="0,0" pers-end="0,0" locked="0" mesh="" flag=""/>
            <path id="shapePath7" d="M689.387,102.286 L727.052,165.91 L703.56,165.91 L668.031,103.85 L659.974,103.85 L652.402,165.91 L630.172,165.91 L648.616,15.0125 L678.029,15.0125 C687.607,15.0125 695.212,15.8921 700.842,17.6512 C706.408,19.2801 711.261,22.2772 715.403,26.6425 C723.234,34.7216 727.149,45.1463 727.149,57.9165 C727.149,81.3068 714.562,96.0968 689.387,102.286 M668.225,35.8292 L662.4,84.3039 L672.593,84.3039 C680.1,84.3039 685.698,83.5872 689.387,82.1538 C693.335,80.7205 696.635,78.2772 699.289,74.824 C702.913,70.0026 704.725,64.3342 704.725,57.8188 C704.725,50.1957 702.525,44.6251 698.124,41.1067 C693.788,37.5884 686.928,35.8292 677.544,35.8292 L668.225,35.8292 Z" style="stroke:none;fill-rule:nonzero;fill:#000000;fill-opacity:1;"/>
        </g>
        <g id="Shape8">
            <desc shapeID="8" type="0" basicInfo-basicType="0" basicInfo-roundedRectRadius="12" basicInfo-polygonSides="6" basicInfo-starPoints="5" bounding="rect(-363.154,-4,726.308,8)" text="" font-familyName="" font-pixelSize="20" font-bold="0" font-underline="0" font-alignment="1" strokeStyle="0" markerStart="0" markerEnd="0" shadowEnabled="0" shadowOffsetX="0" shadowOffsetY="2" shadowBlur="4" shadowOpacity="160" blurEnabled="0" blurRadius="4" transform="matrix(1.00116,0,0,1,363.575,167.279)" pers-center="0,0" pers-size="0,0" pers-start="0,0" pers-end="0,0" locked="0" mesh="" flag=""/>
            <path id="shapePath8" d="M-3.05176e-05,163.279 L727.149,163.279 L727.149,171.279 L-3.05176e-05,171.279 L-3.05176e-05,163.279 Z" style="stroke:none;fill-rule:evenodd;fill:#00a0c8;fill-opacity:1;"/>
        </g>
        <g id="Shape9">
            <desc shapeID="9" type="0" basicInfo-basicType="0" basicInfo-roundedRectRadius="12" basicInfo-polygonSides="6" basicInfo-starPoints="5" bounding="rect(-363.154,-4,726.308,8)" text="" font-familyName="" font-pixelSize="20" font-bold="0" font-underline="0" font-alignment="1" strokeStyle="0" markerStart="0" markerEnd="0" shadowEnabled="0" shadowOffsetX="0" shadowOffsetY="2" shadowBlur="4" shadowOpacity="160" blurEnabled="0" blurRadius="4" transform="matrix(1.00116,0,0,1,363.575,177.443)" pers-center="0,0" pers-size="0,0" pers-start="0,0" pers-end="0,0" locked="0" mesh="" flag=""/>
            <path id="shapePath9" d="M-3.05176e-05,173.443 L727.149,173.443 L727.149,181.443 L-3.05176e-05,181.443 L-3.05176e-05,173.443 Z" style="stroke:none;fill-rule:evenodd;fill:#00a050;fill-opacity:1;"/>
        </g>
        <g id="Shape10">
            <desc shapeID="10" type="0" basicInfo-basicType="0" basicInfo-roundedRectRadius="12" basicInfo-polygonSides="6" basicInfo-starPoints="5" bounding="rect(-363.154,-4,726.308,8)" text="" font-familyName="" font-pixelSize="20" font-bold="0" font-underline="0" font-alignment="1" strokeStyle="0" markerStart="0" markerEnd="0" shadowEnabled="0" shadowOffsetX="0" shadowOffsetY="2" shadowBlur="4" shadowOpacity="160" blurEnabled="0" blurRadius="4" transform="matrix(1.00116,0,0,1,363.575,187.791)" pers-center="0,0" pers-size="0,0" pers-start="0,0" pers-end="0,0" locked="0" mesh="" flag=""/>
            <path id="shapePath10" d="M-3.05176e-05,183.791 L727.149,183.791 L727.149,191.791 L-3.05176e-05,191.791 L-3.05176e-05,183.791 Z" style="stroke:none;fill-rule:evenodd;fill:#ffa050;fill-opacity:1;"/>
        </g>
        <g id="Shape11">
            <desc shapeID="11" type="0" basicInfo-basicType="0" basicInfo-roundedRectRadius="12" basicInfo-polygonSides="6" basicInfo-starPoints="5" bounding="rect(-363.154,-4,726.308,8)" text="" font-familyName="" font-pixelSize="20" font-bold="0" font-underline="0" font-alignment="1" strokeStyle="0" markerStart="0" markerEnd="0" shadowEnabled="0" shadowOffsetX="0" shadowOffsetY="2" shadowBlur="4" shadowOpacity="160" blurEnabled="0" blurRadius="4" transform="matrix(1.00116,0,0,1,363.575,198.12)" pers-center="0,0" pers-size="0,0" pers-start="0,0" pers-end="0,0" locked="0" mesh="" flag=""/>
            <path id="shapePath11" d="M-3.05176e-05,194.12 L727.149,194.12 L727.149,202.12 L-3.05176e-05,202.12 L-3.05176e-05,194.12 Z" style="stroke:none;fill-rule:evenodd;fill:#ffa0c8;fill-opacity:1;"/>
        </g>
    </g>
</svg>
