<?xml version="1.0" encoding="UTF-8" standalone="no"?>
<!-- Created with Inkscape (http://www.inkscape.org/) -->

<svg
   xmlns:osb="http://www.openswatchbook.org/uri/2009/osb"
   xmlns:dc="http://purl.org/dc/elements/1.1/"
   xmlns:cc="http://creativecommons.org/ns#"
   xmlns:rdf="http://www.w3.org/1999/02/22-rdf-syntax-ns#"
   xmlns:svg="http://www.w3.org/2000/svg"
   xmlns="http://www.w3.org/2000/svg"
   xmlns:sodipodi="http://sodipodi.sourceforge.net/DTD/sodipodi-0.dtd"
   xmlns:inkscape="http://www.inkscape.org/namespaces/inkscape"
   width="500"
   height="500"
   viewBox="0 0 500.00001 500.00001"
   id="svg2"
   version="1.1"
   inkscape:version="0.91 r13725"
   sodipodi:docname="de-liker.svg">
  <defs
     id="defs4">
    <linearGradient
       id="linearGradient4157"
       osb:paint="solid">
      <stop
         style="stop-color:#00a050;stop-opacity:1;"
         offset="0"
         id="stop4159" />
    </linearGradient>
  </defs>
  <sodipodi:namedview
     id="base"
     pagecolor="#ffffff"
     bordercolor="#666666"
     borderopacity="1.0"
     inkscape:pageopacity="0.0"
     inkscape:pageshadow="2"
     inkscape:zoom="0.98994949"
     inkscape:cx="259.30251"
     inkscape:cy="228.10013"
     inkscape:document-units="px"
     inkscape:current-layer="flowRoot4136"
     showgrid="false"
     units="px"
     inkscape:showpageshadow="false"
     inkscape:window-width="1440"
     inkscape:window-height="851"
     inkscape:window-x="0"
     inkscape:window-y="0"
     inkscape:window-maximized="0" />
  <metadata
     id="metadata7">
    <rdf:RDF>
      <cc:Work
         rdf:about="">
        <dc:format>image/svg+xml</dc:format>
        <dc:type
           rdf:resource="http://purl.org/dc/dcmitype/StillImage" />
        <dc:title />
      </cc:Work>
    </rdf:RDF>
  </metadata>
  <g
     inkscape:label="レイヤー 1"
     inkscape:groupmode="layer"
     id="layer1"
     transform="translate(0,-552.36216)">
    <g
       transform="matrix(3.671896,0,0,3.671896,-81.316449,-22.640029)"
       style="font-style:italic;font-variant:normal;font-weight:500;font-stretch:normal;font-size:100px;line-height:125%;font-family:Futura;-inkscape-font-specification:'Futura, Medium Italic';text-align:start;letter-spacing:-0.05719116px;word-spacing:0px;writing-mode:lr-tb;text-anchor:start;fill:#000000;fill-opacity:1;stroke:none;stroke-width:1px;stroke-linecap:butt;stroke-linejoin:miter;stroke-opacity:1"
       id="flowRoot4136">
      <path
         style="fill:#00a050;fill-opacity:1;stroke:#00a050;stroke-width:0;stroke-linejoin:miter;stroke-miterlimit:4;stroke-dasharray:none;stroke-dashoffset:0;stroke-opacity:1"
         d="M 0 102 L 0 398 L 113.61133 398 C 102.61584 394.13186 92.939883 387.86107 84.589844 379.17969 C 69.529332 363.40199 62 343.0825 62 318.2207 C 62 291.68553 70.247342 269.63309 86.742188 252.0625 C 103.23703 234.49189 123.97571 225.70508 148.95703 225.70508 C 161.74651 225.70508 172.50298 227.91731 181.22852 232.33984 C 190.31263 236.88191 199.81552 244.59171 209.73633 255.46875 L 228.53125 102 L 0 102 z M 268.15039 102 L 231.69922 398 L 316.37305 398 C 306.29213 394.14798 297.46597 388.47617 289.9043 380.97266 C 274.36565 365.55356 266.59766 344.93522 266.59766 319.11719 C 266.59766 292.10391 275.14383 269.512 292.23633 251.34375 C 309.2093 233.29506 330.66402 224.27148 356.60156 224.27148 C 381.7024 224.27148 401.48438 232.40047 415.94727 248.65625 C 430.64919 265.03156 438 286.96367 438 314.45508 C 438 317.32376 437.82149 321.98495 437.46289 328.43945 L 306.9375 328.43945 C 306.9375 340.87034 311.24166 351.09123 319.84766 359.09961 C 328.57321 367.10797 339.68868 371.11133 353.19531 371.11133 C 371.72213 371.11133 385.94636 364.17968 395.86719 350.31445 L 425.44922 366.62891 C 415.16982 380.49413 404.59188 390.17556 393.71484 395.67383 C 392.06973 396.51427 390.35606 397.28529 388.58789 398 L 500 398 L 500 102 L 268.15039 102 z M 354.62891 257.44141 C 331.32096 257.44141 316.14196 270.46832 309.08984 296.52539 L 397.83789 296.52539 C 393.6544 270.46832 379.25164 257.44141 354.62891 257.44141 z M 155.58984 258.875 C 140.05122 258.875 127.20284 264.67142 117.04297 276.26562 C 106.8831 287.85984 101.80273 302.50324 101.80273 320.19336 C 101.80273 335.13435 106.16509 347.14634 114.89062 356.23047 C 123.61617 365.19506 135.21096 369.67773 149.67383 369.67773 C 164.73434 369.67773 177.46436 363.58052 187.86328 351.38867 C 198.38173 339.43587 203.64063 324.6159 203.64062 306.92578 C 203.64062 292.58245 199.21811 280.98764 190.37305 272.14258 C 181.52798 263.29749 169.93319 258.875 155.58984 258.875 z M 194.31641 380.61328 C 184.85854 389.03309 176.63821 394.81121 169.62891 398 L 192.25195 398 L 194.31641 380.61328 z "
         transform="matrix(0.27233887,0,0,0.27233887,22.14563,156.59545)"
         id="rect4141" />
    </g>
  </g>
</svg>
